# Blender v2.91.2 OBJ File: 'TubeRoller.blend'
# www.blender.org
mtllib TubeRoller.mtl
o Portal_Cylinder.064
v -0.000001 0.147060 0.000001
v 0.000001 -4.852942 0.000001
v -4.499998 0.147059 0.000001
v -4.413535 -0.730847 0.000001
v -4.157458 -1.575016 0.000001
v -3.741611 -2.353008 0.000001
v -3.181980 -3.034922 0.000001
v -2.500063 -3.594555 0.000001
v -1.722073 -4.010398 0.000001
v -0.877905 -4.266476 0.000001
v 0.000001 -4.352942 0.000001
v 0.877907 -4.266476 0.000001
v 1.722077 -4.010402 0.000001
v 2.500067 -3.594555 0.000001
v 3.181983 -3.034922 0.000001
v 3.741616 -2.353007 0.000001
v 4.157459 -1.575015 0.000001
v 4.413537 -0.730846 0.000001
v 4.500003 0.147061 0.000001
v 4.413534 1.024968 0.000001
v 4.157459 1.869137 0.000001
v 3.741613 2.647128 0.000001
v 3.181979 3.329041 0.000001
v 2.500065 3.888673 0.000001
v 1.722073 4.304519 0.000001
v 0.877904 4.560596 0.000001
v -0.000003 4.647058 0.000001
v -0.877910 4.560593 0.000001
v -1.722079 4.304515 0.000001
v -2.500071 3.888672 0.000001
v -3.181983 3.329036 0.000001
v -3.741615 2.647119 0.000001
v -4.157458 1.869127 0.000001
v -4.413535 1.024959 0.000001
vt 0.000000 0.000000
vt 0.000000 0.000000
vt 0.000000 0.000000
vt 0.000000 0.000000
vt 0.000000 0.000000
vt 0.000000 0.000000
vt 0.000000 0.000000
vt 0.000000 0.000000
vt 0.000000 0.000000
vt 0.000000 0.000000
vt 0.000000 0.000000
vt 0.000000 0.000000
vt 0.000000 0.000000
vt 0.000000 0.000000
vt 0.000000 0.000000
vt 0.000000 0.000000
vt 0.000000 0.000000
vt 0.000000 0.000000
vt 0.000000 0.000000
vt 0.000000 0.000000
vt 0.000000 0.000000
vt 0.000000 0.000000
vt 0.000000 0.000000
vt 0.000000 0.000000
vt 0.000000 0.000000
vt 0.000000 0.000000
vt 0.000000 0.000000
vt 0.000000 0.000000
vt 0.000000 0.000000
vt 0.000000 0.000000
vt 0.000000 0.000000
vt 0.000000 0.000000
vt 0.000000 0.000000
vn 0.0000 0.0000 -1.0000
usemtl Material
s off
f 28/1/1 27/2/1 1/3/1
f 5/4/1 4/5/1 1/3/1
f 12/6/1 11/7/1 1/3/1
f 20/8/1 19/9/1 1/3/1
f 27/2/1 26/10/1 1/3/1
f 26/10/1 25/11/1 1/3/1
f 25/11/1 24/12/1 1/3/1
f 24/12/1 23/13/1 1/3/1
f 23/13/1 22/14/1 1/3/1
f 22/14/1 21/15/1 1/3/1
f 21/15/1 20/8/1 1/3/1
f 3/16/1 34/17/1 1/3/1
f 34/17/1 33/18/1 1/3/1
f 33/18/1 32/19/1 1/3/1
f 32/19/1 31/20/1 1/3/1
f 31/20/1 30/21/1 1/3/1
f 30/21/1 29/22/1 1/3/1
f 29/22/1 28/1/1 1/3/1
f 4/5/1 3/16/1 1/3/1
f 1/3/1 11/7/1 10/23/1
f 10/23/1 9/24/1 1/3/1
f 9/24/1 8/25/1 1/3/1
f 8/25/1 7/26/1 1/3/1
f 7/26/1 6/27/1 1/3/1
f 6/27/1 5/4/1 1/3/1
f 19/9/1 18/28/1 1/3/1
f 18/28/1 17/29/1 1/3/1
f 17/29/1 16/30/1 1/3/1
f 16/30/1 15/31/1 1/3/1
f 15/31/1 14/32/1 1/3/1
f 14/32/1 13/33/1 1/3/1
f 13/33/1 12/6/1 1/3/1
